<svg width="32" height="32" viewBox="0 0 32 32" fill="none" xmlns="http://www.w3.org/2000/svg">
<path fill-rule="evenodd" clip-rule="evenodd" d="M0 16C0 7.16344 7.16344 0 16 0C20.2435 0 24.3131 1.68571 27.3137 4.68629C30.3143 7.68687 32 11.7565 32 16C32 24.8366 24.8366 32 16 32C7.16344 32 0 24.8366 0 16ZM13.9681 21.3602L22.9601 12.3682C23.2547 12.0591 23.2547 11.5732 22.9601 11.2642L22.1121 10.4162C21.8011 10.1113 21.3032 10.1113 20.9921 10.4162L13.4081 18.0002L11.0081 15.6162C10.863 15.4615 10.6603 15.3738 10.4481 15.3738C10.236 15.3738 10.0333 15.4615 9.88812 15.6162L9.04012 16.4642C8.88867 16.6144 8.80349 16.8189 8.80349 17.0322C8.80349 17.2455 8.88867 17.45 9.04012 17.6002L12.8481 21.3602C12.9933 21.5149 13.196 21.6026 13.4081 21.6026C13.6203 21.6026 13.823 21.5149 13.9681 21.3602Z" fill="#6174DD"/>
</svg>
