<svg width="32" height="32" viewBox="0 0 32 32" fill="none" xmlns="http://www.w3.org/2000/svg">
<path fill-rule="evenodd" clip-rule="evenodd" d="M16 0C7.16344 0 0 7.16344 0 16C0 24.8366 7.16344 32 16 32C24.8366 32 32 24.8366 32 16C32 11.7565 30.3143 7.68687 27.3137 4.68629C24.3131 1.68571 20.2435 0 16 0ZM15.9998 4.80048C18.6508 4.80048 20.7998 6.94951 20.7998 9.60048C20.7998 12.2514 18.6508 14.4005 15.9998 14.4005C13.3489 14.4005 11.1998 12.2514 11.1998 9.60048C11.1998 6.94951 13.3489 4.80048 15.9998 4.80048ZM15.9997 27.1792C19.5439 27.1792 22.8788 25.5018 24.9918 22.6564C25.3191 22.1778 25.362 21.5595 25.1038 21.0404L24.7358 20.2884C23.9307 18.6453 22.2615 17.6028 20.4317 17.6004H11.5677C9.71194 17.6024 8.02356 18.674 7.23175 20.3524L6.89575 21.0564C6.64377 21.5712 6.68649 22.1816 7.00775 22.6564C9.12065 25.5018 12.4556 27.1792 15.9997 27.1792Z" fill="#6174DD"/>
</svg>
