<svg width="32" height="32" viewBox="0 0 32 32" fill="none" xmlns="http://www.w3.org/2000/svg">
<circle cx="16" cy="16" r="16" fill="#6174DD"/>
<path d="M21.5813 10.435L24.4 13.0781C24.5187 13.1895 24.5187 13.3712 24.4 13.4825L17.575 19.8822L14.675 20.184C14.2875 20.225 13.9594 19.9174 14.0031 19.554L14.325 16.8347L21.15 10.435C21.2687 10.3237 21.4625 10.3237 21.5813 10.435ZM26.6437 9.76402L25.1187 8.33405C24.6437 7.88865 23.8719 7.88865 23.3938 8.33405L22.2875 9.37136C22.1688 9.48271 22.1688 9.66439 22.2875 9.77574L25.1063 12.4188C25.225 12.5302 25.4188 12.5302 25.5375 12.4188L26.6437 11.3815C27.1187 10.9332 27.1187 10.2094 26.6437 9.76402V9.76402ZM21 18.1416V21.1246H11V11.7478H18.1812C18.2812 11.7478 18.375 11.7097 18.4469 11.6452L19.6969 10.4731C19.9344 10.2504 19.7656 9.87244 19.4312 9.87244H10.5C9.67188 9.87244 9 10.5024 9 11.279V21.5935C9 22.37 9.67188 23 10.5 23H21.5C22.3281 23 23 22.37 23 21.5935V16.9695C23 16.656 22.5969 16.5007 22.3594 16.7205L21.1094 17.8926C21.0406 17.96 21 18.0479 21 18.1416Z" fill="white"/>
</svg>
