<svg width="32" height="32" viewBox="0 0 32 32" fill="none" xmlns="http://www.w3.org/2000/svg">
<circle cx="16" cy="16" r="16" fill="#6174DD"/>
<path d="M22.5 9.00001H18.75L18.4563 8.41563C18.394 8.2907 18.2982 8.18561 18.1795 8.11218C18.0608 8.03875 17.9239 7.99991 17.7844 8.00001H14.2125C14.0732 7.99947 13.9367 8.03817 13.8184 8.11168C13.7001 8.18519 13.6049 8.29053 13.5437 8.41563L13.25 9.00001H9.5C9.36739 9.00001 9.24021 9.05268 9.14645 9.14645C9.05268 9.24022 9 9.3674 9 9.5V10.5C9 10.6326 9.05268 10.7598 9.14645 10.8536C9.24021 10.9473 9.36739 11 9.5 11H22.5C22.6326 11 22.7598 10.9473 22.8536 10.8536C22.9473 10.7598 23 10.6326 23 10.5V9.5C23 9.3674 22.9473 9.24022 22.8536 9.14645C22.7598 9.05268 22.6326 9.00001 22.5 9.00001V9.00001ZM10.6625 22.5938C10.6863 22.9746 10.8544 23.332 11.1325 23.5932C11.4106 23.8545 11.7778 24 12.1594 24H19.8406C20.2222 24 20.5894 23.8545 20.8675 23.5932C21.1456 23.332 21.3137 22.9746 21.3375 22.5938L22 12H10L10.6625 22.5938Z" fill="white"/>
</svg>
