<svg width="32" height="32" viewBox="0 0 32 32" fill="none" xmlns="http://www.w3.org/2000/svg">
<circle cx="16" cy="16" r="16" fill="#6174DD"/>
<path fill-rule="evenodd" clip-rule="evenodd" d="M22.705 8.73596L23.2637 9.29483C23.5019 9.53281 23.6359 9.85566 23.6362 10.1924V10.836C23.6404 11.1786 23.5061 11.5084 23.2637 11.7505L21.6976 13.2916C21.6181 13.3718 21.5099 13.4169 21.3971 13.4169C21.2842 13.4169 21.176 13.3718 21.0965 13.2916L18.7177 10.8783C18.5564 10.7137 18.5564 10.4502 18.7177 10.2856L20.25 8.73596C20.492 8.4935 20.8217 8.35914 21.1643 8.36338H21.8076C22.1443 8.36368 22.4671 8.49769 22.705 8.73596ZM20.0891 14.8836C20.2505 14.719 20.2505 14.4555 20.0891 14.2909L17.668 11.903C17.5885 11.8228 17.4804 11.7777 17.3675 11.7777C17.2546 11.7777 17.1464 11.8228 17.067 11.903L10.2354 18.7364C10.0702 18.9002 9.94051 19.0962 9.85441 19.3123L8.39835 22.9873C8.31587 23.178 8.38402 23.4005 8.5592 23.5123C8.67917 23.6321 8.85905 23.6687 9.01633 23.6054L12.6903 22.1151C12.9063 22.029 13.1023 21.8992 13.266 21.734L20.0891 14.8836Z" fill="white"/>
</svg>
