<svg width="32" height="32" viewBox="0 0 32 32" fill="none" xmlns="http://www.w3.org/2000/svg">
<circle cx="16" cy="16" r="16" fill="#6174DD"/>
<path d="M25.4743 14.0005C23.8556 14.1098 21.5462 15.7099 20.3774 16.2349C19.468 16.6442 18.6836 16.9974 17.9993 16.9974C17.293 16.9974 17.1868 16.4911 17.3336 15.3755C17.368 15.1255 17.6993 12.9005 15.9992 12.9973C15.2149 13.0442 13.9898 13.7723 10.7023 16.9349L11.9992 13.6942C12.9492 11.3223 10.3367 8.9598 7.94604 10.4817L6.2304 11.6348C5.99915 11.7817 5.9304 12.0911 6.07728 12.3255L6.61478 13.1692C6.76166 13.4036 7.07104 13.4723 7.30541 13.3223L9.11793 12.1067C9.69294 11.7411 10.3898 12.3317 10.1398 12.9536L7.07104 20.6287C6.85853 21.1568 7.15541 22.0005 7.99917 22.0005C8.25855 22.0005 8.5148 21.9005 8.70543 21.7068C10.0242 20.388 13.5398 16.9974 15.3055 15.588C15.2367 16.4786 15.2399 17.4286 15.9492 18.2068C16.4274 18.7318 17.1149 18.9974 17.9961 18.9974C19.1086 18.9974 20.1212 18.5411 21.193 18.0599C22.2243 17.5974 24.2868 16.1036 25.5181 16.0036C25.7837 15.9817 25.9931 15.7755 25.9931 15.5099V14.5067C25.9993 14.2224 25.7587 13.9817 25.4743 14.0005V14.0005Z" fill="white"/>
</svg>
